<mxfile><diagram id="H-k5cJus3axV0q1jfleg" name="Page-1"><mxGraphModel dx="771" dy="607" grid="1" gridSize="10" guides="1" tooltips="1" connect="1" arrows="1" fold="1" page="1" pageScale="1" pageWidth="850" pageHeight="1100" math="0" shadow="0"><root><mxCell id="0"/><mxCell id="1" parent="0"/><mxCell id="2" value="Product" style="swimlane;fontStyle=0;childLayout=stackLayout;horizontal=1;startSize=30;horizontalStack=0;resizeParent=1;resizeParentMax=0;resizeLast=0;collapsible=1;marginBottom=0;whiteSpace=wrap;html=1;" vertex="1" parent="1"><mxGeometry x="300" y="240" width="140" height="180" as="geometry"/></mxCell><mxCell id="3" value="Id" style="text;strokeColor=none;fillColor=none;align=left;verticalAlign=middle;spacingLeft=4;spacingRight=4;overflow=hidden;points=[[0,0.5],[1,0.5]];portConstraint=eastwest;rotatable=0;whiteSpace=wrap;html=1;" vertex="1" parent="2"><mxGeometry y="30" width="140" height="30" as="geometry"/></mxCell><mxCell id="4" value="name" style="text;strokeColor=none;fillColor=none;align=left;verticalAlign=middle;spacingLeft=4;spacingRight=4;overflow=hidden;points=[[0,0.5],[1,0.5]];portConstraint=eastwest;rotatable=0;whiteSpace=wrap;html=1;" vertex="1" parent="2"><mxGeometry y="60" width="140" height="30" as="geometry"/></mxCell><mxCell id="5" value="Category" style="text;strokeColor=none;fillColor=none;align=left;verticalAlign=middle;spacingLeft=4;spacingRight=4;overflow=hidden;points=[[0,0.5],[1,0.5]];portConstraint=eastwest;rotatable=0;whiteSpace=wrap;html=1;" vertex="1" parent="2"><mxGeometry y="90" width="140" height="30" as="geometry"/></mxCell><mxCell id="12" value="Collection" style="text;strokeColor=none;fillColor=none;align=left;verticalAlign=middle;spacingLeft=4;spacingRight=4;overflow=hidden;points=[[0,0.5],[1,0.5]];portConstraint=eastwest;rotatable=0;whiteSpace=wrap;html=1;" vertex="1" parent="2"><mxGeometry y="120" width="140" height="30" as="geometry"/></mxCell><mxCell id="13" value="description" style="text;strokeColor=none;fillColor=none;align=left;verticalAlign=middle;spacingLeft=4;spacingRight=4;overflow=hidden;points=[[0,0.5],[1,0.5]];portConstraint=eastwest;rotatable=0;whiteSpace=wrap;html=1;" vertex="1" parent="2"><mxGeometry y="150" width="140" height="30" as="geometry"/></mxCell><mxCell id="6" value="Colection" style="swimlane;fontStyle=0;childLayout=stackLayout;horizontal=1;startSize=30;horizontalStack=0;resizeParent=1;resizeParentMax=0;resizeLast=0;collapsible=1;marginBottom=0;whiteSpace=wrap;html=1;" vertex="1" parent="1"><mxGeometry x="200" y="80" width="140" height="120" as="geometry"/></mxCell><mxCell id="7" value="Id" style="text;strokeColor=none;fillColor=none;align=left;verticalAlign=middle;spacingLeft=4;spacingRight=4;overflow=hidden;points=[[0,0.5],[1,0.5]];portConstraint=eastwest;rotatable=0;whiteSpace=wrap;html=1;" vertex="1" parent="6"><mxGeometry y="30" width="140" height="30" as="geometry"/></mxCell><mxCell id="11" value="name" style="text;strokeColor=none;fillColor=none;align=left;verticalAlign=middle;spacingLeft=4;spacingRight=4;overflow=hidden;points=[[0,0.5],[1,0.5]];portConstraint=eastwest;rotatable=0;whiteSpace=wrap;html=1;" vertex="1" parent="6"><mxGeometry y="60" width="140" height="30" as="geometry"/></mxCell><mxCell id="8" value="description" style="text;strokeColor=none;fillColor=none;align=left;verticalAlign=middle;spacingLeft=4;spacingRight=4;overflow=hidden;points=[[0,0.5],[1,0.5]];portConstraint=eastwest;rotatable=0;whiteSpace=wrap;html=1;" vertex="1" parent="6"><mxGeometry y="90" width="140" height="30" as="geometry"/></mxCell><mxCell id="14" value="Category" style="swimlane;fontStyle=0;childLayout=stackLayout;horizontal=1;startSize=30;horizontalStack=0;resizeParent=1;resizeParentMax=0;resizeLast=0;collapsible=1;marginBottom=0;whiteSpace=wrap;html=1;" vertex="1" parent="1"><mxGeometry x="380" y="80" width="140" height="120" as="geometry"/></mxCell><mxCell id="15" value="Id" style="text;strokeColor=none;fillColor=none;align=left;verticalAlign=middle;spacingLeft=4;spacingRight=4;overflow=hidden;points=[[0,0.5],[1,0.5]];portConstraint=eastwest;rotatable=0;whiteSpace=wrap;html=1;" vertex="1" parent="14"><mxGeometry y="30" width="140" height="30" as="geometry"/></mxCell><mxCell id="16" value="name" style="text;strokeColor=none;fillColor=none;align=left;verticalAlign=middle;spacingLeft=4;spacingRight=4;overflow=hidden;points=[[0,0.5],[1,0.5]];portConstraint=eastwest;rotatable=0;whiteSpace=wrap;html=1;" vertex="1" parent="14"><mxGeometry y="60" width="140" height="30" as="geometry"/></mxCell><mxCell id="17" value="description" style="text;strokeColor=none;fillColor=none;align=left;verticalAlign=middle;spacingLeft=4;spacingRight=4;overflow=hidden;points=[[0,0.5],[1,0.5]];portConstraint=eastwest;rotatable=0;whiteSpace=wrap;html=1;" vertex="1" parent="14"><mxGeometry y="90" width="140" height="30" as="geometry"/></mxCell><mxCell id="19" style="edgeStyle=elbowEdgeStyle;html=1;exitX=1;exitY=0.5;exitDx=0;exitDy=0;entryX=1;entryY=0.5;entryDx=0;entryDy=0;endArrow=diamond;endFill=1;startArrow=ERmany;startFill=0;" edge="1" parent="1" source="5" target="15"><mxGeometry relative="1" as="geometry"><Array as="points"><mxPoint x="550" y="290"/><mxPoint x="580" y="260"/></Array></mxGeometry></mxCell><mxCell id="21" style="edgeStyle=elbowEdgeStyle;html=1;exitX=0;exitY=0.5;exitDx=0;exitDy=0;entryX=0;entryY=0.5;entryDx=0;entryDy=0;endArrow=diamond;endFill=1;startArrow=ERmany;startFill=0;" edge="1" parent="1" source="12" target="7"><mxGeometry relative="1" as="geometry"><mxPoint y="355" as="sourcePoint"/><mxPoint x="80" y="135" as="targetPoint"/><Array as="points"><mxPoint x="180" y="240"/><mxPoint x="140" y="270"/></Array></mxGeometry></mxCell><mxCell id="22" value="Variant" style="swimlane;fontStyle=0;childLayout=stackLayout;horizontal=1;startSize=30;horizontalStack=0;resizeParent=1;resizeParentMax=0;resizeLast=0;collapsible=1;marginBottom=0;whiteSpace=wrap;html=1;" vertex="1" parent="1"><mxGeometry x="300" y="460" width="140" height="120" as="geometry"/></mxCell><mxCell id="23" value="Id" style="text;strokeColor=none;fillColor=none;align=left;verticalAlign=middle;spacingLeft=4;spacingRight=4;overflow=hidden;points=[[0,0.5],[1,0.5]];portConstraint=eastwest;rotatable=0;whiteSpace=wrap;html=1;" vertex="1" parent="22"><mxGeometry y="30" width="140" height="30" as="geometry"/></mxCell><mxCell id="24" value="Type" style="text;strokeColor=none;fillColor=none;align=left;verticalAlign=middle;spacingLeft=4;spacingRight=4;overflow=hidden;points=[[0,0.5],[1,0.5]];portConstraint=eastwest;rotatable=0;whiteSpace=wrap;html=1;" vertex="1" parent="22"><mxGeometry y="60" width="140" height="30" as="geometry"/></mxCell><mxCell id="25" value="Value" style="text;strokeColor=none;fillColor=none;align=left;verticalAlign=middle;spacingLeft=4;spacingRight=4;overflow=hidden;points=[[0,0.5],[1,0.5]];portConstraint=eastwest;rotatable=0;whiteSpace=wrap;html=1;" vertex="1" parent="22"><mxGeometry y="90" width="140" height="30" as="geometry"/></mxCell><mxCell id="26" value="Variant Option" style="swimlane;fontStyle=0;childLayout=stackLayout;horizontal=1;startSize=30;horizontalStack=0;resizeParent=1;resizeParentMax=0;resizeLast=0;collapsible=1;marginBottom=0;whiteSpace=wrap;html=1;" vertex="1" parent="1"><mxGeometry x="500" y="580" width="140" height="90" as="geometry"/></mxCell><mxCell id="27" value="Color" style="text;strokeColor=none;fillColor=none;align=left;verticalAlign=middle;spacingLeft=4;spacingRight=4;overflow=hidden;points=[[0,0.5],[1,0.5]];portConstraint=eastwest;rotatable=0;whiteSpace=wrap;html=1;" vertex="1" parent="26"><mxGeometry y="30" width="140" height="30" as="geometry"/></mxCell><mxCell id="28" value="size" style="text;strokeColor=none;fillColor=none;align=left;verticalAlign=middle;spacingLeft=4;spacingRight=4;overflow=hidden;points=[[0,0.5],[1,0.5]];portConstraint=eastwest;rotatable=0;whiteSpace=wrap;html=1;" vertex="1" parent="26"><mxGeometry y="60" width="140" height="30" as="geometry"/></mxCell><mxCell id="30" style="edgeStyle=elbowEdgeStyle;html=1;exitX=1;exitY=0.5;exitDx=0;exitDy=0;entryX=0.5;entryY=0;entryDx=0;entryDy=0;startArrow=ERmany;startFill=0;endArrow=diamond;endFill=1;" edge="1" parent="1" source="24" target="26"><mxGeometry relative="1" as="geometry"><Array as="points"><mxPoint x="570" y="550"/><mxPoint x="510" y="440"/><mxPoint x="480" y="480"/><mxPoint x="470" y="450"/><mxPoint x="510" y="410"/></Array></mxGeometry></mxCell><mxCell id="31" style="edgeStyle=elbowEdgeStyle;html=1;exitX=0;exitY=0.5;exitDx=0;exitDy=0;startArrow=ERmany;startFill=0;endArrow=diamond;endFill=1;entryX=0;entryY=0.5;entryDx=0;entryDy=0;" edge="1" parent="1" source="23" target="3"><mxGeometry relative="1" as="geometry"><mxPoint x="260" y="290" as="targetPoint"/><Array as="points"><mxPoint x="270" y="450"/></Array></mxGeometry></mxCell><mxCell id="32" value="Gallery" style="swimlane;fontStyle=0;childLayout=stackLayout;horizontal=1;startSize=30;horizontalStack=0;resizeParent=1;resizeParentMax=0;resizeLast=0;collapsible=1;marginBottom=0;whiteSpace=wrap;html=1;" vertex="1" parent="1"><mxGeometry x="510" y="420" width="140" height="90" as="geometry"/></mxCell><mxCell id="33" value="Id" style="text;strokeColor=none;fillColor=none;align=left;verticalAlign=middle;spacingLeft=4;spacingRight=4;overflow=hidden;points=[[0,0.5],[1,0.5]];portConstraint=eastwest;rotatable=0;whiteSpace=wrap;html=1;" vertex="1" parent="32"><mxGeometry y="30" width="140" height="30" as="geometry"/></mxCell><mxCell id="34" value="Galery" style="text;strokeColor=none;fillColor=none;align=left;verticalAlign=middle;spacingLeft=4;spacingRight=4;overflow=hidden;points=[[0,0.5],[1,0.5]];portConstraint=eastwest;rotatable=0;whiteSpace=wrap;html=1;" vertex="1" parent="32"><mxGeometry y="60" width="140" height="30" as="geometry"/></mxCell><mxCell id="36" style="edgeStyle=elbowEdgeStyle;html=1;exitX=1;exitY=0.5;exitDx=0;exitDy=0;entryX=0;entryY=0.5;entryDx=0;entryDy=0;startArrow=oval;startFill=1;endArrow=ERmany;endFill=0;" edge="1" parent="1" source="23" target="32"><mxGeometry relative="1" as="geometry"/></mxCell></root></mxGraphModel></diagram></mxfile>